<svg width="180" height="180" viewBox="0 0 180 180" fill="none" xmlns="http://www.w3.org/2000/svg">
<g clip-path="url(#clip0_59766_174204)">
<rect width="180" height="180" rx="32" fill="#FF37A5"/>
<path d="M37.5 89.9944C37.5 57.0942 65.5435 30 100.109 30C110.543 30 120.326 32.5804 129.457 37.0961C137.283 40.9667 142.5 49.353 142.5 57.7393C142.5 70.6413 131.413 80.9629 118.37 80.9629C114.457 80.9629 111.196 80.3178 107.283 78.3825C96.8478 73.2217 85.7609 80.3178 85.7609 89.9944C85.7609 97.0905 92.2826 103.541 99.4565 103.541C102.065 103.541 104.022 102.896 105.978 101.606C109.891 99.6709 113.152 99.0258 117.065 99.0258C130.109 99.0258 141.196 109.347 141.196 122.249C141.196 130.636 135.978 139.022 128.152 142.893C119.022 147.408 109.239 149.989 98.8043 149.989C65.5435 150.634 37.5 123.54 37.5 89.9944Z" fill="white"/>
</g>
<defs>
<clipPath id="clip0_59766_174204">
<rect width="180" height="180" rx="32" fill="white"/>
</clipPath>
</defs>
</svg>
