<svg width="16" height="16" viewBox="0 0 16 16" fill="none" xmlns="http://www.w3.org/2000/svg">
<g clip-path="url(#clip0_17049_13807)">
<g clip-path="url(#clip1_17049_13807)">
<path d="M5.00004 8.00016L7.00004 10.0002L11 6.00016M14.6667 8.00016C14.6667 11.6821 11.6819 14.6668 8.00004 14.6668C4.31814 14.6668 1.33337 11.6821 1.33337 8.00016C1.33337 4.31826 4.31814 1.3335 8.00004 1.3335C11.6819 1.3335 14.6667 4.31826 14.6667 8.00016Z" stroke="#28D737" stroke-linecap="round" stroke-linejoin="round"/>
</g>
</g>
<defs>
<clipPath id="clip0_17049_13807">
<path d="M0 8C0 3.58172 3.58172 0 8 0C12.4183 0 16 3.58172 16 8C16 12.4183 12.4183 16 8 16C3.58172 16 0 12.4183 0 8Z" fill="white"/>
</clipPath>
<clipPath id="clip1_17049_13807">
<rect width="16" height="16" fill="white"/>
</clipPath>
</defs>
</svg>
