<svg width="40" height="40" viewBox="0 0 40 40" fill="none" xmlns="http://www.w3.org/2000/svg">
<path d="M5 18.3335H10C10.8841 18.3335 11.7319 18.6847 12.357 19.3098C12.9821 19.9349 13.3333 20.7828 13.3333 21.6668V26.6668C13.3333 27.5509 12.9821 28.3987 12.357 29.0239C11.7319 29.649 10.8841 30.0002 10 30.0002H8.33333C7.44928 30.0002 6.60143 29.649 5.97631 29.0239C5.35119 28.3987 5 27.5509 5 26.6668V18.3335ZM5 18.3335C5 16.3637 5.38799 14.4131 6.14181 12.5932C6.89563 10.7734 8.00052 9.11977 9.3934 7.72689C10.7863 6.33402 12.4399 5.22912 14.2597 4.4753C16.0796 3.72148 18.0302 3.3335 20 3.3335C21.9698 3.3335 23.9204 3.72148 25.7403 4.4753C27.5601 5.22912 29.2137 6.33402 30.6066 7.72689C31.9995 9.11977 33.1044 10.7734 33.8582 12.5932C34.612 14.4131 35 16.3637 35 18.3335M35 18.3335V26.6668M35 18.3335H30C29.1159 18.3335 28.2681 18.6847 27.643 19.3098C27.0179 19.9349 26.6667 20.7828 26.6667 21.6668V26.6668C26.6667 27.5509 27.0179 28.3987 27.643 29.0239C28.2681 29.649 29.1159 30.0002 30 30.0002H31.6667C32.5507 30.0002 33.3986 29.649 34.0237 29.0239C34.6488 28.3987 35 27.5509 35 26.6668M35 26.6668V30.0002C35 31.7683 34.2976 33.464 33.0474 34.7142C31.7971 35.9644 30.1014 36.6668 28.3333 36.6668H20" stroke="url(#paint0_linear_15653_13557)" stroke-width="3" stroke-linecap="round" stroke-linejoin="round"/>
<defs>
<linearGradient id="paint0_linear_15653_13557" x1="20" y1="3.3335" x2="20" y2="36.6668" gradientUnits="userSpaceOnUse">
<stop stop-color="#FF37A5"/>
<stop offset="1" stop-color="#B950F5"/>
</linearGradient>
</defs>
</svg>
