<svg width="18" height="14" viewBox="0 0 18 14" fill="none" xmlns="http://www.w3.org/2000/svg">
<g id="Lozenge">
<path id="Vector" d="M17.8207 3.39961C17.8207 3.39961 17.6449 2.15859 17.1035 1.61367C16.418 0.896484 15.6516 0.892969 15.3 0.850781C12.7828 0.667969 9.00352 0.667969 9.00352 0.667969H8.99648C8.99648 0.667969 5.21719 0.667969 2.7 0.850781C2.34844 0.892969 1.58203 0.896484 0.896484 1.61367C0.355078 2.15859 0.182812 3.39961 0.182812 3.39961C0.182812 3.39961 0 4.85859 0 6.31406V7.67812C0 9.13359 0.179297 10.5926 0.179297 10.5926C0.179297 10.5926 0.355078 11.8336 0.892969 12.3785C1.57852 13.0957 2.47852 13.0711 2.8793 13.1484C4.3207 13.2855 9 13.3277 9 13.3277C9 13.3277 12.7828 13.3207 15.3 13.1414C15.6516 13.0992 16.418 13.0957 17.1035 12.3785C17.6449 11.8336 17.8207 10.5926 17.8207 10.5926C17.8207 10.5926 18 9.13711 18 7.67812V6.31406C18 4.85859 17.8207 3.39961 17.8207 3.39961ZM7.14023 9.33398V4.275L12.0023 6.81328L7.14023 9.33398Z" fill="white"/>
</g>
</svg>
